<svg width="90" height="79" viewBox="0 0 90 79" fill="none" xmlns="http://www.w3.org/2000/svg">
<path d="M19 30.9999L20.4965 31.1019L19 30.9999ZM64.5 26.5L65.6169 25.4987L64.5 26.5ZM79.1144 78.7106C79.783 79.1998 80.7215 79.0543 81.2106 78.3856L89.1814 67.4899C89.6705 66.8213 89.525 65.8827 88.8564 65.3936C88.1877 64.9045 87.2492 65.05 86.7601 65.7186L79.675 75.4037L69.9899 68.3186C69.3213 67.8295 68.3827 67.975 67.8936 68.6436C67.4045 69.3123 67.55 70.2508 68.2186 70.7399L79.1144 78.7106ZM0.391195 3.49599C27.7927 5.48885 41.0983 12.0726 46.876 19.5427C52.5689 26.9033 51.2854 35.6073 48.1237 42.9036L50.8763 44.0964C54.2146 36.3926 55.9311 26.3467 49.249 17.7073C42.6517 9.17737 28.2073 2.51108 0.608805 0.50389L0.391195 3.49599ZM48.1237 42.9036C45.2442 49.5486 38.1376 51.7633 31.709 49.6969C25.369 47.659 19.7932 41.4178 20.4965 31.1019L17.5035 30.8979C16.7068 42.582 23.131 50.0908 30.791 52.553C38.3624 54.9867 47.2558 52.4514 50.8763 44.0964L48.1237 42.9036ZM20.4965 31.1019C20.8019 26.6232 22.6654 23.2063 25.4807 20.7936C28.3204 18.36 32.2067 16.8855 36.6077 16.4898C45.4264 15.697 56.0031 19.2697 63.3831 27.5013L65.6169 25.4987C57.5963 16.5527 46.0878 12.6254 36.339 13.5019C31.4563 13.9409 26.9382 15.5935 23.5285 18.5157C20.0942 21.4589 17.8629 25.6267 17.5035 30.8979L20.4965 31.1019ZM63.3831 27.5013C69.6722 34.516 72.619 41.6377 74.4107 49.7004C75.3114 53.7533 75.9189 58.0385 76.512 62.6898C77.103 67.3243 77.6803 72.3283 78.5177 77.7298L81.4823 77.2702C80.6531 71.9217 80.0845 66.9882 79.488 62.3103C78.8936 57.649 78.272 53.2468 77.3393 49.0496C75.4643 40.6124 72.3278 32.9841 65.6169 25.4987L63.3831 27.5013Z" fill="url(#paint0_linear_29_174)"/>
<defs>
<linearGradient id="paint0_linear_29_174" x1="-6.30663e-07" y1="2" x2="80" y2="78" gradientUnits="userSpaceOnUse">
<stop stop-color="#1AEABD"/>
<stop offset="1" stop-color="#63A0E4"/>
</linearGradient>
</defs>
</svg>
