<svg width="27" height="37" viewBox="0 0 27 37" fill="none" xmlns="http://www.w3.org/2000/svg">
<path d="M13.5 26.4286C15.6476 26.4264 17.7065 25.5904 19.2251 24.1039C20.7437 22.6175 21.5978 20.6021 21.6 18.5V7.92857C21.6 5.82578 20.7466 3.80912 19.2276 2.32222C17.7085 0.835329 15.6483 0 13.5 0C11.3517 0 9.29148 0.835329 7.77244 2.32222C6.25339 3.80912 5.4 5.82578 5.4 7.92857V18.5C5.40223 20.6021 6.25634 22.6175 7.7749 24.1039C9.29346 25.5904 11.3524 26.4264 13.5 26.4286ZM8.1 7.92857C8.1 6.52671 8.66893 5.18227 9.68162 4.19101C10.6943 3.19974 12.0678 2.64286 13.5 2.64286C14.9322 2.64286 16.3057 3.19974 17.3184 4.19101C18.3311 5.18227 18.9 6.52671 18.9 7.92857V18.5C18.9 19.9019 18.3311 21.2463 17.3184 22.2376C16.3057 23.2288 14.9322 23.7857 13.5 23.7857C12.0678 23.7857 10.6943 23.2288 9.68162 22.2376C8.66893 21.2463 8.1 19.9019 8.1 18.5V7.92857ZM14.85 31.6482V35.6786C14.85 36.029 14.7078 36.3651 14.4546 36.613C14.2014 36.8608 13.858 37 13.5 37C13.142 37 12.7986 36.8608 12.5454 36.613C12.2922 36.3651 12.15 36.029 12.15 35.6786V31.6482C8.82165 31.3167 5.7371 29.7889 3.49286 27.3603C1.24862 24.9317 0.00411094 21.7747 0 18.5C0 18.1495 0.142232 17.8134 0.395406 17.5656C0.64858 17.3178 0.991958 17.1786 1.35 17.1786C1.70804 17.1786 2.05142 17.3178 2.30459 17.5656C2.55777 17.8134 2.7 18.1495 2.7 18.5C2.7 21.3037 3.83785 23.9926 5.86325 25.9751C7.88864 27.9577 10.6357 29.0714 13.5 29.0714C16.3643 29.0714 19.1114 27.9577 21.1368 25.9751C23.1621 23.9926 24.3 21.3037 24.3 18.5C24.3 18.1495 24.4422 17.8134 24.6954 17.5656C24.9486 17.3178 25.292 17.1786 25.65 17.1786C26.008 17.1786 26.3514 17.3178 26.6046 17.5656C26.8578 17.8134 27 18.1495 27 18.5C26.9959 21.7747 25.7514 24.9317 23.5071 27.3603C21.2629 29.7889 18.1784 31.3167 14.85 31.6482Z" fill="white"/>
</svg>
