<?xml version="1.0" standalone="no"?>
<!DOCTYPE svg PUBLIC "-//W3C//DTD SVG 20010904//EN"
 "http://www.w3.org/TR/2001/REC-SVG-20010904/DTD/svg10.dtd">
<svg version="1.0" xmlns="http://www.w3.org/2000/svg"
 width="260.000000pt" height="260.000000pt" viewBox="0 0 260.000000 260.000000"
 preserveAspectRatio="xMidYMid meet">
<metadata>
Created by potrace 1.11, written by Peter Selinger 2001-2013
</metadata>
<g transform="translate(0.000000,260.000000) scale(0.100000,-0.100000)"
fill="#000000" stroke="none">
<path d="M1072 2513 c-19 -17 -38 -31 -41 -30 -3 1 -23 -15 -44 -36 -31 -30
-46 -37 -77 -37 -21 0 -51 -5 -67 -12 -15 -6 -30 -12 -33 -12 -12 -2 -70 -70
-70 -82 0 -8 -4 -14 -8 -14 -12 0 -32 -70 -32 -113 0 -38 -5 -45 -63 -91 -20
-16 -37 -37 -37 -45 0 -9 -8 -21 -19 -28 -10 -6 -28 -31 -40 -56 -12 -24 -32
-54 -45 -66 -22 -20 -24 -29 -19 -86 2 -38 0 -66 -6 -70 -15 -9 -13 -52 3
-100 8 -22 16 -51 18 -65 1 -14 6 -28 11 -31 4 -3 8 -26 10 -52 1 -30 7 -47
15 -47 6 0 12 -10 12 -23 0 -13 5 -28 11 -34 6 -6 12 -17 13 -24 2 -8 6 -22
10 -31 5 -10 13 -39 20 -64 11 -44 10 -49 -11 -70 -22 -22 -23 -31 -22 -146 1
-119 9 -167 51 -283 6 -16 11 -38 11 -48 1 -10 7 -15 13 -13 20 8 34 -16 34
-57 0 -21 7 -52 15 -68 8 -16 22 -43 31 -59 8 -17 13 -34 10 -39 -3 -5 1 -12
10 -15 8 -3 12 -11 9 -16 -7 -12 48 -85 102 -137 18 -18 33 -37 33 -42 0 -6 4
-11 9 -11 13 0 141 -127 141 -139 0 -5 23 -24 52 -41 43 -27 61 -32 117 -32
36 -1 82 1 101 4 19 2 48 1 64 -3 21 -6 40 -2 77 17 27 13 49 28 49 33 0 6 9
13 21 16 11 4 18 9 15 13 -3 3 12 17 33 31 22 15 53 41 70 59 17 17 34 32 38
32 3 0 20 10 37 23 17 12 48 31 69 42 37 19 130 114 129 131 0 5 5 15 11 23 7
7 12 19 12 25 1 6 9 28 18 49 10 21 20 74 24 118 6 79 6 79 35 79 32 0 105 42
128 74 8 12 16 32 17 45 1 14 6 36 12 50 11 30 23 161 25 271 1 54 -3 81 -14
93 -34 41 -55 57 -72 57 -10 0 -18 2 -18 4 0 7 30 172 36 196 3 14 7 34 8 45
1 11 5 26 9 33 5 6 5 17 2 22 -3 6 -2 10 2 10 5 0 8 25 7 55 -1 30 2 57 6 60
4 2 4 26 0 52 -7 44 -7 58 1 88 1 6 -3 23 -9 38 -7 16 -12 33 -12 38 0 5 -4 9
-10 9 -5 0 -9 3 -8 8 5 14 -25 77 -63 133 -21 32 -36 59 -33 62 3 2 -23 26
-58 52 -35 26 -63 52 -63 58 0 6 -12 14 -27 18 -15 4 -40 17 -55 29 -23 18
-80 48 -103 55 -3 0 -25 10 -50 22 -25 11 -67 28 -95 37 -27 9 -57 19 -65 23
-8 3 -21 7 -28 9 -30 6 -43 14 -37 24 3 5 -4 11 -17 11 -13 1 -27 2 -33 3 -5
1 -26 5 -45 9 -19 4 -79 8 -134 10 l-98 3 -36 -33z"/>
</g>
</svg>
