<svg width="739" height="218" viewBox="0 0 739 218" fill="none" xmlns="http://www.w3.org/2000/svg">
<path d="M220.5 204.002L220.5 13.9918" stroke="white" stroke-width="3" stroke-linecap="round"/>
<path d="M510 204.002V13.9918" stroke="white" stroke-width="3" stroke-linecap="round"/>
<path d="M231.5 188.002L231.5 29.9887" stroke="white" stroke-width="3" stroke-linecap="round"/>
<path d="M521 188.002V29.9887" stroke="white" stroke-width="3" stroke-linecap="round"/>
<path d="M243.5 195.002L243.5 23.9889" stroke="white" stroke-width="3" stroke-linecap="round"/>
<path d="M533 195.002V23.9889" stroke="white" stroke-width="3" stroke-linecap="round"/>
<path d="M256 180.002V38.0023" stroke="white" stroke-width="3" stroke-linecap="round"/>
<path d="M545.5 180.002V38.0023" stroke="white" stroke-width="3" stroke-linecap="round"/>
<path d="M267.504 169.002V49.0087" stroke="white" stroke-width="3" stroke-linecap="round"/>
<path d="M557.004 169.002V49.0087" stroke="white" stroke-width="3" stroke-linecap="round"/>
<path d="M279.5 167.002V52.019" stroke="white" stroke-width="3" stroke-linecap="round"/>
<path d="M569 167.002V52.019" stroke="white" stroke-width="3" stroke-linecap="round"/>
<path opacity="0.1" d="M1.99609 173.002L1.99609 45.0299" stroke="white" stroke-width="3" stroke-linecap="round"/>
<path d="M291.496 173.002V45.0299" stroke="white" stroke-width="3" stroke-linecap="round"/>
<path d="M580.996 173.002V45.0299" stroke="white" stroke-width="3" stroke-linecap="round"/>
<path opacity="0.2" d="M14.0072 178.002L14.0072 40.0407" stroke="white" stroke-width="3" stroke-linecap="round"/>
<path d="M303.507 178.002L303.507 40.0407" stroke="white" stroke-width="3" stroke-linecap="round"/>
<path d="M593.007 178.002V40.0407" stroke="white" stroke-width="3" stroke-linecap="round"/>
<path opacity="0.3" d="M26.5 169.002L26.5 49.0023" stroke="white" stroke-width="3" stroke-linecap="round"/>
<path d="M316 169.002V49.0023" stroke="white" stroke-width="3" stroke-linecap="round"/>
<path d="M605.5 169.002V49.0023" stroke="white" stroke-width="3" stroke-linecap="round"/>
<path opacity="0.4" d="M38.5 157.002L38.5 62.0023" stroke="white" stroke-width="3" stroke-linecap="round"/>
<path d="M328 157.002V62.0023" stroke="white" stroke-width="3" stroke-linecap="round"/>
<path d="M617.5 157.002V62.0023" stroke="white" stroke-width="3" stroke-linecap="round"/>
<path opacity="0.5" d="M50.5 188.002L50.5 30.0023" stroke="white" stroke-width="3" stroke-linecap="round"/>
<path d="M340 188.002V30.0023" stroke="white" stroke-width="3" stroke-linecap="round"/>
<path d="M629.5 188.002V30.0023" stroke="white" stroke-width="3" stroke-linecap="round"/>
<path opacity="0.6" d="M62 197.002L62 20.9995" stroke="white" stroke-width="3" stroke-linecap="round"/>
<path d="M351.5 197.002L351.5 20.9995" stroke="white" stroke-width="3" stroke-linecap="round"/>
<path d="M641 197.002V20.9995" stroke="white" stroke-width="3" stroke-linecap="round"/>
<path opacity="0.7" d="M75 216.005L75 2.00232" stroke="white" stroke-width="3" stroke-linecap="round"/>
<path d="M364.5 216.002L364.5 2" stroke="white" stroke-width="3" stroke-linecap="round"/>
<path opacity="0.8" d="M654 216.002V2" stroke="white" stroke-width="3" stroke-linecap="round"/>
<path opacity="0.8" d="M86.5 204.002L86.5 14.0023" stroke="white" stroke-width="3" stroke-linecap="round"/>
<path d="M376 204.002V14.0023" stroke="white" stroke-width="3" stroke-linecap="round"/>
<path opacity="0.7" d="M665.5 204.002V14.0023" stroke="white" stroke-width="3" stroke-linecap="round"/>
<path d="M98.5 211.002L98.5 8.00233" stroke="white" stroke-width="3" stroke-linecap="round"/>
<path d="M388 211.002V8.00233" stroke="white" stroke-width="3" stroke-linecap="round"/>
<path opacity="0.6" d="M677.5 211.002V8.00233" stroke="white" stroke-width="3" stroke-linecap="round"/>
<path d="M110.5 198.002L110.5 20.0023" stroke="white" stroke-width="3" stroke-linecap="round"/>
<path d="M400 198.002V20.0023" stroke="white" stroke-width="3" stroke-linecap="round"/>
<path opacity="0.5" d="M689.5 198.002V20.0023" stroke="white" stroke-width="3" stroke-linecap="round"/>
<path d="M123.003 191.002L123.003 26.9993" stroke="white" stroke-width="3" stroke-linecap="round"/>
<path d="M412.503 191.002V26.9993" stroke="white" stroke-width="3" stroke-linecap="round"/>
<path opacity="0.4" d="M702.003 191.002V26.9993" stroke="white" stroke-width="3" stroke-linecap="round"/>
<path d="M134.5 196.002V23.0023" stroke="white" stroke-width="3" stroke-linecap="round"/>
<path d="M424 196.002V23.0023" stroke="white" stroke-width="3" stroke-linecap="round"/>
<path opacity="0.3" d="M713.5 196.002V23.0023" stroke="white" stroke-width="3" stroke-linecap="round"/>
<path d="M146.5 176.002V43.0023" stroke="white" stroke-width="3" stroke-linecap="round"/>
<path d="M436 176.002V43.0023" stroke="white" stroke-width="3" stroke-linecap="round"/>
<path opacity="0.2" d="M725.5 176.002V43.0023" stroke="white" stroke-width="3" stroke-linecap="round"/>
<path d="M158.5 158.002V61.0023" stroke="white" stroke-width="3" stroke-linecap="round"/>
<path d="M448 158.002V61.0023" stroke="white" stroke-width="3" stroke-linecap="round"/>
<path opacity="0.1" d="M737.5 158.002V61.0023" stroke="white" stroke-width="3" stroke-linecap="round"/>
<path d="M171 160.002V57.9974" stroke="white" stroke-width="3" stroke-linecap="round"/>
<path d="M460.5 160.002V57.9974" stroke="white" stroke-width="3" stroke-linecap="round"/>
<path d="M181.5 153.002V64.9796" stroke="white" stroke-width="3" stroke-linecap="round"/>
<path d="M471 158.002V69.9796" stroke="white" stroke-width="3" stroke-linecap="round"/>
<path d="M195.5 157.002V59.9817" stroke="white" stroke-width="3" stroke-linecap="round"/>
<path d="M485 157.002V59.9817" stroke="white" stroke-width="3" stroke-linecap="round"/>
<path d="M206.5 164.002V54.0023" stroke="white" stroke-width="3" stroke-linecap="round"/>
<path d="M496 164.002V54.0023" stroke="white" stroke-width="3" stroke-linecap="round"/>
</svg>
