<svg width="308" height="52" viewBox="0 0 308 52" fill="none" xmlns="http://www.w3.org/2000/svg">
<path d="M91.9067 47.811L91.9067 3.77892" stroke="white" stroke-linecap="round"/>
<path d="M212.351 47.811V3.77892" stroke="white" stroke-linecap="round"/>
<path d="M96.4832 44.1032V7.48595" stroke="white" stroke-linecap="round"/>
<path d="M216.927 44.1032V7.48595" stroke="white" stroke-linecap="round"/>
<path d="M101.476 45.7253L101.476 6.09558" stroke="white" stroke-linecap="round"/>
<path d="M221.919 45.7253V6.09558" stroke="white" stroke-linecap="round"/>
<path d="M106.676 42.2493V9.34299" stroke="white" stroke-linecap="round"/>
<path d="M227.12 42.2493V9.34299" stroke="white" stroke-linecap="round"/>
<path d="M111.462 39.7003V11.8935" stroke="white" stroke-linecap="round"/>
<path d="M231.906 39.7003V11.8935" stroke="white" stroke-linecap="round"/>
<path d="M116.453 39.2368L116.453 12.5911" stroke="white" stroke-linecap="round"/>
<path d="M236.897 39.2368V12.5911" stroke="white" stroke-linecap="round"/>
<path opacity="0.1" d="M1 40.6272L1 10.9715" stroke="white" stroke-linecap="round"/>
<path d="M121.444 40.6272L121.444 10.9715" stroke="white" stroke-linecap="round"/>
<path d="M241.888 40.6272V10.9715" stroke="white" stroke-linecap="round"/>
<path opacity="0.2" d="M5.99713 41.7859L5.99713 9.81538" stroke="white" stroke-linecap="round"/>
<path d="M126.441 41.7859L126.441 9.81538" stroke="white" stroke-linecap="round"/>
<path d="M246.885 41.7859V9.81538" stroke="white" stroke-linecap="round"/>
<path opacity="0.3" d="M11.1946 39.7003L11.1946 11.8921" stroke="white" stroke-linecap="round"/>
<path d="M131.639 39.7003V11.8921" stroke="white" stroke-linecap="round"/>
<path d="M252.083 39.7003V11.8921" stroke="white" stroke-linecap="round"/>
<path opacity="0.4" d="M16.1871 36.9194L16.1871 14.9046" stroke="white" stroke-linecap="round"/>
<path d="M136.631 36.9194V14.9046" stroke="white" stroke-linecap="round"/>
<path d="M257.075 36.9194V14.9046" stroke="white" stroke-linecap="round"/>
<path opacity="0.5" d="M21.1797 44.1032L21.1797 7.48911" stroke="white" stroke-linecap="round"/>
<path d="M141.624 44.1032V7.48911" stroke="white" stroke-linecap="round"/>
<path d="M262.068 44.1032V7.48911" stroke="white" stroke-linecap="round"/>
<path opacity="0.6" d="M25.9641 46.1888L25.9641 5.40286" stroke="white" stroke-linecap="round"/>
<path d="M146.408 46.1888L146.408 5.40286" stroke="white" stroke-linecap="round"/>
<path d="M266.852 46.1888V5.40286" stroke="white" stroke-linecap="round"/>
<path opacity="0.7" d="M31.3727 50.5923L31.3727 1.00053" stroke="white" stroke-linecap="round"/>
<path d="M151.817 50.5918L151.817 1.00001" stroke="white" stroke-linecap="round"/>
<path opacity="0.8" d="M272.261 50.5918V1.00001" stroke="white" stroke-linecap="round"/>
<path opacity="0.8" d="M36.1571 47.811L36.1571 3.78136" stroke="white" stroke-linecap="round"/>
<path d="M156.601 47.811V3.78136" stroke="white" stroke-linecap="round"/>
<path opacity="0.7" d="M277.045 47.811V3.78136" stroke="white" stroke-linecap="round"/>
<path d="M41.1497 49.4331L41.1497 2.39094" stroke="white" stroke-linecap="round"/>
<path d="M161.594 49.4331V2.39094" stroke="white" stroke-linecap="round"/>
<path opacity="0.6" d="M282.038 49.4331V2.39094" stroke="white" stroke-linecap="round"/>
<path d="M46.1422 46.4206L46.1422 5.17177" stroke="white" stroke-linecap="round"/>
<path d="M166.586 46.4206V5.17177" stroke="white" stroke-linecap="round"/>
<path opacity="0.5" d="M287.03 46.4206V5.17177" stroke="white" stroke-linecap="round"/>
<path d="M51.3439 44.7984L51.3439 6.79319" stroke="white" stroke-linecap="round"/>
<path d="M171.788 44.7984V6.79319" stroke="white" stroke-linecap="round"/>
<path opacity="0.4" d="M292.232 44.7984V6.79319" stroke="white" stroke-linecap="round"/>
<path d="M56.1271 45.9571L56.1271 5.86697" stroke="white" stroke-linecap="round"/>
<path d="M176.571 45.9571V5.86697" stroke="white" stroke-linecap="round"/>
<path opacity="0.3" d="M297.015 45.9571V5.86697" stroke="white" stroke-linecap="round"/>
<path d="M61.1197 41.3224V10.5017" stroke="white" stroke-linecap="round"/>
<path d="M181.564 41.3224V10.5017" stroke="white" stroke-linecap="round"/>
<path opacity="0.2" d="M302.007 41.3224V10.5017" stroke="white" stroke-linecap="round"/>
<path d="M66.1121 37.1512V14.6729" stroke="white" stroke-linecap="round"/>
<path d="M186.556 37.1512V14.6729" stroke="white" stroke-linecap="round"/>
<path opacity="0.1" d="M307 37.1512V14.6729" stroke="white" stroke-linecap="round"/>
<path d="M71.3126 37.6147V13.9766" stroke="white" stroke-linecap="round"/>
<path d="M191.757 37.6147V13.9766" stroke="white" stroke-linecap="round"/>
<path d="M75.6811 35.9925V15.5946" stroke="white" stroke-linecap="round"/>
<path d="M196.125 35.9925V15.5946" stroke="white" stroke-linecap="round"/>
<path d="M81.5057 36.9194V14.4364" stroke="white" stroke-linecap="round"/>
<path d="M201.95 36.9194V14.4364" stroke="white" stroke-linecap="round"/>
<path d="M86.0822 38.5416V13.0507" stroke="white" stroke-linecap="round"/>
<path d="M206.526 38.5416V13.0507" stroke="white" stroke-linecap="round"/>
</svg>
