<svg xmlns="http://www.w3.org/2000/svg" width="655.557" height="355.684" viewBox="0 0 655.557 355.684"><g transform="translate(0 0)"><rect width="193.96" height="343.838" transform="translate(233.354 190.604) rotate(-74.21)" fill="#3f3d56"/><circle cx="2.74" cy="2.74" r="2.74" transform="translate(289.11 9.032)" fill="#08a88a"/><circle cx="2.74" cy="2.74" r="2.74" transform="translate(297.548 11.418)" fill="#08a88a"/><circle cx="2.74" cy="2.74" r="2.74" transform="translate(305.986 13.804)" fill="#08a88a"/><path d="M780.859,366.487a32.013,32.013,0,0,0-13.37.316,31.954,31.954,0,0,0,.945-13.51A31.768,31.768,0,0,0,756.483,361a31.768,31.768,0,0,0-6.142-12.829,31.956,31.956,0,0,0-6.27,12,32.013,32.013,0,0,0-11.225-7.271s-2,10.149,2.809,18.477c4.276,7.412,12.492,10.881,14.248,11.555l.041.049.022-.025c.178.068.278.1.278.1s.038-.195.09-.543l.1-.122c.007.056.013.106.02.156-.138.324-.208.51-.208.51s.1.023.29.059l.006.033.061-.021c1.849.346,10.665,1.693,18.189-2.382C777.244,376.177,780.859,366.487,780.859,366.487Z" transform="translate(-319.132 -244.09)" fill="#08a88a"/><circle cx="7.125" cy="7.125" r="7.125" transform="translate(438.205 82.222)" fill="#08a88a"/><rect width="222.505" height="4.841" transform="translate(320.681 121.301) rotate(15.79)" fill="#08a88a"/><rect width="38.363" height="38.363" transform="translate(334.159 150.172) rotate(15.79)" fill="#08a88a"/><rect width="38.363" height="38.363" transform="translate(402.717 169.559) rotate(15.79)" fill="#08a88a"/><rect width="38.363" height="38.363" transform="translate(471.274 188.946) rotate(15.79)" fill="#08a88a"/><rect width="28.498" height="3.288" transform="translate(326.378 195.813) rotate(15.79)" fill="#08a88a"/><rect width="28.498" height="3.288" transform="translate(394.936 215.2) rotate(15.79)" fill="#08a88a"/><rect width="28.498" height="3.288" transform="translate(463.493 234.587) rotate(15.79)" fill="#08a88a"/><ellipse cx="183.404" cy="6.781" rx="183.404" ry="6.781" transform="translate(3.617 249.274)" fill="#d0cde1"/><ellipse cx="142.719" cy="6.781" rx="142.719" ry="6.781" transform="translate(370.119 326.123)" fill="#d0cde1"/><ellipse cx="142.719" cy="6.781" rx="142.719" ry="6.781" transform="translate(68.119 342.123)" fill="#d0cde1"/><path d="M778.172,621h41.174v17.219H795.391v17.219h23.957v17.218H778.172Zm49.41,0h41.175v14.973H844.8v2.994h23.956v34.438H827.583V657.682h23.956v-2.994H827.581V621Zm49.411,0h41.175v14.973H894.212v2.994h23.956v34.438H876.993V657.682h23.956v-2.994H876.994V621Z" transform="translate(-335.332 -340.728)" fill="#3f3d56"/><path d="M827.583,621h41.174v52.405H827.583V648.361H842.25v9.321h12.332V635.973h-27V621Zm49.41,0h41.175v14.973H894.212v2.994h23.956v34.438H876.993V657.682h23.956v-2.994H876.994V621Z" transform="translate(-637.332 -324.728)" fill="#3f3d56"/><path d="M220.926,499h16.986v16.782H253.45V499h16.987v50.819H253.451V532.8H237.913v17.017H220.927V499Zm71.846,16.853H277.821V499h46.9v16.853H309.761v33.966H292.776V515.852h0ZM332.165,499h17.711l10.895,17.856L371.655,499h17.718v50.819H372.457V524.63L360.771,542.7h-.293L348.784,524.63v25.189H332.165Zm65.661,0h16.991v34.022H438.7v16.8H397.825V499Z" transform="translate(-137.949 -297.514)" fill="#3f3d56"/><path d="M81.27,366.091l-1.394,15.8,11.153-.93V367.485Z" transform="translate(-28.293 -129.674)" fill="#ffb8b8"/><path d="M60.85,366.091l1.394,15.8-11.153-.93V367.485Z" transform="translate(-18.097 -129.674)" fill="#ffb8b8"/><path d="M175.574,365.276s3.718,22.306,3.718,25.559S177.9,415,175.574,419.182s-2.788,6.041-1.859,7.9.465,1.394,0,2.788-1.394.929,0,2.788a4.883,4.883,0,0,1,0,5.576c-.929,1.394,1.859,39.036-1.859,41.824s-4.647,12.082-4.647,12.082l-12.082-1.394V480.524s-2.788-7.435-.929-12.082,2.788-29.277,2.788-29.277a9.231,9.231,0,0,1,0-3.718,2.068,2.068,0,0,0-.929-2.788c-.929-.465-1.394-2.324-1.394-2.324l-1.394-33.924-5.576,33.459s5.576,45.541,0,51.583v10.688H135.61l1.859-11.618s-3.718-10.688-1.859-13.012-5.576-39.5-4.647-40.894.465-1.859,0-2.788-1.859-1.859-1.394-2.788a5.326,5.326,0,0,0,0-2.788s-8.829-43.683-4.647-47.865S175.574,365.276,175.574,365.276Z" transform="translate(-103.544 -250.147)" fill="#2f2e41"/><path d="M173,566.423s.929-4.457,8.365-2.925c0,0,1.859,3.855,1.859,5.714s1.859,14.406,1.859,14.406,7.435,12.547-1.859,12.547-12.547-3.253-13.012-6.506.465-4.182-1.394-5.576-2.788-1.394-2.324-3.253,1.394-11.153,1.394-11.153.465-6.971,3.021-5.112l2.556,1.859" transform="translate(-118.625 -320.246)" fill="#2f2e41"/><path d="M148.309,566.423s-.929-4.457-8.365-2.925c0,0-1.859,3.855-1.859,5.714s-1.859,14.406-1.859,14.406-7.435,12.547,1.859,12.547,12.547-3.253,13.012-6.506-.465-4.182,1.394-5.576,2.788-1.394,2.324-3.253-1.394-11.153-1.394-11.153-.465-6.971-3.021-5.112l-2.556,1.859" transform="translate(-106.95 -320.246)" fill="#2f2e41"/><circle cx="12.547" cy="12.547" r="12.547" transform="translate(42.289 4.528)" fill="#ffb8b8"/><path d="M158.189,216.319s-5.112,19.982-6.041,20.447,21.377,2.324,21.377,2.324-5.576-17.194,0-19.982Z" transform="translate(-113.577 -197.385)" fill="#ffb8b8"/><path d="M148.058,235.174v0l-15.323,10.6,2.788,83.183s20.447-2.324,25.094-1.859,19.518-4.182,19.518-4.182l-6.514-78.163a6.42,6.42,0,0,0-5.947-5.871l-2.791-.2s-2.788,6.9-11.177,3.342a9.788,9.788,0,0,1-5.649-6.845Z" transform="translate(-106.71 -204.063)" fill="#d0cde1"/><path d="M142.542,234l-18.947,9.029-3.718,53.441s-7.435,32.065-1.394,41.359a23.533,23.533,0,0,0,16.265,10.224s13.477-53.441,9.759-71.565S142.542,234,142.542,234Z" transform="translate(-100.824 -203.648)" fill="#575a89"/><path d="M101.562,358.8v6.971s-2.788,15.335,6.041,14.871,4.647-16.73,4.647-16.73l-2.788-5.112Z" transform="translate(-95.52 -247.853)" fill="#ffb8b8"/><path d="M223.077,379.877l-.929,7.9s4.647,15.8-4.182,16.265-2.42-16.168-2.42-16.168l2.885-8.926Z" transform="translate(-135.247 -254.99)" fill="#ffb8b8"/><path d="M180.8,238.085h0a54.729,54.729,0,0,1,22.886,11.9l.08.07-6.506,34.388-.929,12.547s17.194,61.342-2.788,52.512c0,0-17.194-53.441-14.871-78.071S180.8,238.085,180.8,238.085Z" transform="translate(-122.905 -205.095)" fill="#575a89"/><path d="M205.8,255.834c.465-.465,6.041.646,6.041.646s10.224,36.066,10.224,42.107,1.394,40.43,1.394,40.43L211.2,340.253l-9.929-47.779Z" transform="translate(-130.985 -211.341)" fill="#575a89"/><path d="M118.46,247.981h-3.253s-9.294,3.718-9.759,7.9-13.012,46.471-13.012,46.471l3.253,21.377,12.082-1.859,2.324-23.7,12.082-26.024Z" transform="translate(-92.436 -208.6)" fill="#575a89"/><path d="M166.018,207.577l.481-3.353c.112-.782.57-1.809,1.33-1.6.647.181,2.056.734,2.292.567.884-.626,2.221.469,3.15-.087.389-.233.643-.732,1.1-.765a1.248,1.248,0,0,1,.8.364,5.474,5.474,0,0,0,2.082,1.131,2.24,2.24,0,0,0,2.192-.6,1.164,1.164,0,0,1,.388-.372.87.87,0,0,1,.557.026l2.374.646a9.122,9.122,0,0,0-1.22-7.51,15.106,15.106,0,0,0-3.458-3.386q-2.205-1.678-4.552-3.156a14.783,14.783,0,0,0-5.53-2.406,5.905,5.905,0,0,0-5.5,1.826,3.543,3.543,0,0,1-1.275-1.722,1.3,1.3,0,0,0,.084,2L159.3,187.9c-.564.593.538,1.667.057,2.329a1.227,1.227,0,0,1-.541.353,9.2,9.2,0,0,0-2.944,1.853,10.985,10.985,0,0,0-2.319,4.271c-1.2,3.432-2.066,7.369-.366,10.581.193.364,2.736,6.376,3.075,6.611,1.146.792.4-1.125,1.221,0,.644.883.523-2.5,1.48-1.754a2.385,2.385,0,0,0,2.6.117c.4-.275.269-1.8.055-3.205a1.653,1.653,0,0,1,2.011-1.859A7.2,7.2,0,0,0,166.018,207.577Z" transform="translate(-113.62 -187)" fill="#2f2e41"/><path d="M117.655,134.02l5.111,42.289h-3.253Z" transform="translate(-41.675 -47.471)" opacity="0.2"/><path d="M32.763,108.834,30.179,125.1l4.908-16.265H32.763Z" transform="translate(-10.69 -38.55)" opacity="0.2"/></g></svg>