<svg xmlns="http://www.w3.org/2000/svg" width="60.054" height="60.054" viewBox="0 0 60.054 60.054"><g transform="translate(-3.375 -3.375)"><path d="M10.795,15.238a2.8,2.8,0,0,0,0,3.941L24.61,32.951a2.783,2.783,0,0,0,3.84.087l13.613-13.57a2.782,2.782,0,1,0-3.927-3.941L26.443,27.047,14.736,15.223A2.784,2.784,0,0,0,10.795,15.238Z" transform="translate(6.959 11.625)"/><path d="M3.375,33.4A30.027,30.027,0,1,0,33.4,3.375,30.022,30.022,0,0,0,3.375,33.4ZM51.36,15.444A25.4,25.4,0,1,1,15.444,51.36,25.4,25.4,0,1,1,51.36,15.444Z"/></g></svg>