<svg xmlns="http://www.w3.org/2000/svg" width="23.42" height="20.079" viewBox="0 0 23.42 20.079"><g transform="translate(-2.252 -4.499)"><path d="M5.772,4.714A.743.743,0,0,0,4.721,5.765l18.587,18.6a.737.737,0,0,0,.716.188.724.724,0,0,0,.335-.193.742.742,0,0,0,0-1.046Z" transform="translate(-0.578 0)"/><g transform="translate(2.252 7.009)"><path d="M14.182,21.042a4.7,4.7,0,0,1-4.47-6.713l-2.792-2.8A36.675,36.675,0,0,0,2.47,15.782.827.827,0,0,0,2.465,16.9c3.393,3.749,6.384,6.975,11.487,6.975a10.067,10.067,0,0,0,4.3-1L15.98,20.592A4.751,4.751,0,0,1,14.182,21.042Z" transform="translate(-2.252 -8.812)"/><path d="M28.01,15.927a.82.82,0,0,0,.026-1.082c-2.734-3.32-6.525-6.97-11.529-6.97a9.787,9.787,0,0,0-4.287.993l2.285,2.285A4.607,4.607,0,0,1,16.3,10.7a4.7,4.7,0,0,1,4.47,6.713l2.8,2.8A34.585,34.585,0,0,0,28.01,15.927Z" transform="translate(-4.808 -7.875)"/><path d="M13.511,17.921A3.359,3.359,0,0,0,16.59,21a3.268,3.268,0,0,0,1.223-.136l-4.172-4.172A3.42,3.42,0,0,0,13.511,17.921Z" transform="translate(-5.136 -10.136)"/><path d="M22.114,17.93c0-.068-.005-.136-.005-.2a2.318,2.318,0,0,1-.952.2c-.058,0-.11,0-.162-.005l.972.978A3.343,3.343,0,0,0,22.114,17.93Z" transform="translate(-7.057 -10.401)"/><path d="M17.666,14.389a2.457,2.457,0,0,1,.162-.884c-.052,0-.1-.005-.162-.005a3.308,3.308,0,0,0-.967.146l.978.978C17.672,14.546,17.666,14.467,17.666,14.389Z" transform="translate(-5.956 -9.317)"/></g></g></svg>