<svg xmlns="http://www.w3.org/2000/svg" width="28.667" height="26" viewBox="0 0 28.667 26"><g transform="translate(-2 -3.5)"><path d="M5.667,10.5H27a2.62,2.62,0,0,1,2.667,2.571V25.929A2.62,2.62,0,0,1,27,28.5H5.667A2.62,2.62,0,0,1,3,25.929V13.071A2.62,2.62,0,0,1,5.667,10.5Z" transform="translate(0 0)" fill="none" stroke="#000" stroke-linecap="round" stroke-linejoin="round" stroke-width="2"/><path d="M22.889,28.5V7.167A2.7,2.7,0,0,0,20.167,4.5H14.722A2.7,2.7,0,0,0,12,7.167V28.5" transform="translate(-1.111 0)" fill="none" stroke="#000" stroke-linecap="round" stroke-linejoin="round" stroke-width="2"/></g></svg>