<svg xmlns="http://www.w3.org/2000/svg" width="23" height="20" viewBox="0 0 23 20"><path d="M10.021,19.983l-2.192-.691a.477.477,0,0,1-.295-.582L12.44.341a.428.428,0,0,1,.535-.32l2.192.691a.477.477,0,0,1,.295.582L10.557,19.663a.427.427,0,0,1-.535.32ZM5.925,15.6l1.563-1.813a.5.5,0,0,0-.029-.672L4.2,10,7.459,6.888a.494.494,0,0,0,.029-.672L5.925,4.4a.408.408,0,0,0-.611-.02L.136,9.658a.494.494,0,0,0,0,.684L5.314,15.62a.4.4,0,0,0,.611-.02Zm11.758.023,5.178-5.278a.494.494,0,0,0,0-.684L17.683,4.38a.411.411,0,0,0-.611.02L15.509,6.213a.5.5,0,0,0,.029.672L18.793,10l-3.256,3.114a.494.494,0,0,0-.029.672L17.072,15.6a.408.408,0,0,0,.611.023Z" transform="translate(0.002 -0.003)" fill="#06f"/></svg>